<svg width="7" height="12" viewBox="0 0 7 12" fill="none" xmlns="http://www.w3.org/2000/svg">
<path d="M3.29514 11.189C3.92514 11.189 4.49447 11.0467 5.00314 10.762C5.51181 10.4773 5.91547 10.0853 6.21414 9.586C6.51281 9.082 6.66214 8.51033 6.66214 7.871C6.66214 7.325 6.55481 6.82567 6.34014 6.373C6.13014 5.92033 5.82681 5.54933 5.43014 5.26C5.03814 4.966 4.56914 4.78167 4.02314 4.707L6.51514 2.313V0.92H0.453141V2.313H4.72314L1.64314 5.036L2.32914 6.191C2.64181 6.023 2.95914 5.939 3.28114 5.939C3.84114 5.939 4.29381 6.121 4.63914 6.485C4.98914 6.849 5.16414 7.311 5.16414 7.871C5.16414 8.42633 4.99147 8.886 4.64614 9.25C4.30081 9.60933 3.85047 9.79367 3.29514 9.803C2.88447 9.80767 2.51114 9.69567 2.17514 9.467C1.83914 9.23833 1.60347 8.90467 1.46814 8.466L0.0541407 8.858C0.198807 9.334 0.429807 9.747 0.747141 10.097C1.06914 10.447 1.44947 10.7177 1.88814 10.909C2.32681 11.0957 2.79581 11.189 3.29514 11.189Z" fill="white"/>
</svg>
