<?xml version="1.0" encoding="UTF-8" standalone="no"?>
<!-- Created with Inkscape (http://www.inkscape.org/) -->

<svg
   xmlns:dc="http://purl.org/dc/elements/1.1/"
   xmlns:cc="http://creativecommons.org/ns#"
   xmlns:rdf="http://www.w3.org/1999/02/22-rdf-syntax-ns#"
   xmlns:svg="http://www.w3.org/2000/svg"
   xmlns="http://www.w3.org/2000/svg"
   xmlns:xlink="http://www.w3.org/1999/xlink"
   xmlns:sodipodi="http://sodipodi.sourceforge.net/DTD/sodipodi-0.dtd"
   xmlns:inkscape="http://www.inkscape.org/namespaces/inkscape"
   width="97.018837mm"
   height="59.200195mm"
   viewBox="0 0 97.018837 59.200195"
   version="1.1"
   id="svg38"
   inkscape:version="0.92.1 r15371"
   sodipodi:docname="FX13_goldfish.svg">
  <defs
     id="defs32">
    <linearGradient
       id="linearGradient996"
       inkscape:collect="always">
      <stop
         id="stop992"
         offset="0"
         style="stop-color:#ff6600;stop-opacity:1" />
      <stop
         id="stop994"
         offset="1"
         style="stop-color:#fcbc2c;stop-opacity:0.80497926" />
    </linearGradient>
    <linearGradient
       inkscape:collect="always"
       id="linearGradient143">
      <stop
         style="stop-color:#fcbc2c;stop-opacity:1;"
         offset="0"
         id="stop139" />
      <stop
         style="stop-color:#fcbc2c;stop-opacity:0;"
         offset="1"
         id="stop141" />
    </linearGradient>
    <linearGradient
       inkscape:collect="always"
       id="linearGradient133">
      <stop
         style="stop-color:#fcbc2c;stop-opacity:1;"
         offset="0"
         id="stop129" />
      <stop
         style="stop-color:#fcbc2c;stop-opacity:0;"
         offset="1"
         id="stop131" />
    </linearGradient>
    <linearGradient
       inkscape:collect="always"
       id="linearGradient125">
      <stop
         style="stop-color:#ff6600;stop-opacity:1"
         offset="0"
         id="stop121" />
      <stop
         style="stop-color:#fcbc2c;stop-opacity:1"
         offset="1"
         id="stop123" />
    </linearGradient>
    <linearGradient
       inkscape:collect="always"
       id="linearGradient117">
      <stop
         style="stop-color:#fcbc2c;stop-opacity:1;"
         offset="0"
         id="stop113" />
      <stop
         style="stop-color:#ff6600;stop-opacity:1"
         offset="1"
         id="stop115" />
    </linearGradient>
    <linearGradient
       inkscape:collect="always"
       xlink:href="#linearGradient117"
       id="linearGradient119"
       x1="103.47098"
       y1="131.44643"
       x2="133.70908"
       y2="130.69046"
       gradientUnits="userSpaceOnUse" />
    <linearGradient
       inkscape:collect="always"
       xlink:href="#linearGradient996"
       id="linearGradient127"
       x1="71.420921"
       y1="118.83244"
       x2="170.59323"
       y2="125.88125"
       gradientUnits="userSpaceOnUse" />
    <linearGradient
       inkscape:collect="always"
       xlink:href="#linearGradient133"
       id="linearGradient135"
       x1="128.4174"
       y1="131.54091"
       x2="163.00223"
       y2="153.936"
       gradientUnits="userSpaceOnUse" />
    <linearGradient
       inkscape:collect="always"
       xlink:href="#linearGradient143"
       id="linearGradient145"
       x1="121.80283"
       y1="144.77008"
       x2="138.33928"
       y2="158.66071"
       gradientUnits="userSpaceOnUse" />
    <linearGradient
       inkscape:collect="always"
       xlink:href="#linearGradient125"
       id="linearGradient956"
       x1="84.022858"
       y1="137.07259"
       x2="80.38131"
       y2="134.06581"
       gradientUnits="userSpaceOnUse" />
  </defs>
  <sodipodi:namedview
     id="base"
     pagecolor="#ffffff"
     bordercolor="#666666"
     borderopacity="1.0"
     inkscape:pageopacity="0.0"
     inkscape:pageshadow="2"
     inkscape:zoom="0.49497475"
     inkscape:cx="167.52121"
     inkscape:cy="81.045284"
     inkscape:document-units="mm"
     inkscape:current-layer="layer1"
     showgrid="false"
     inkscape:window-width="1920"
     inkscape:window-height="1016"
     inkscape:window-x="0"
     inkscape:window-y="27"
     inkscape:window-maximized="1"
     fit-margin-top="0"
     fit-margin-left="0"
     fit-margin-right="0"
     fit-margin-bottom="0" />
  <metadata
     id="metadata35">
    <rdf:RDF>
      <cc:Work
         rdf:about="">
        <dc:format>image/svg+xml</dc:format>
        <dc:type
           rdf:resource="http://purl.org/dc/dcmitype/StillImage" />
        <dc:title></dc:title>
      </cc:Work>
    </rdf:RDF>
  </metadata>
  <g
     inkscape:label="Layer 1"
     inkscape:groupmode="layer"
     id="layer1"
     style="display:inline"
     transform="translate(-80.581762,-97.082384)">
    <path
       style="fill:url(#linearGradient127);fill-opacity:1;stroke:none;stroke-width:0.26458332px;stroke-linecap:butt;stroke-linejoin:miter;stroke-opacity:1"
       d="m 177.6006,109.01502 c -0.53453,-0.13363 -9.48806,0.13364 -13.22984,0.93545 -3.74177,0.80181 -10.82441,10.55714 -22.317,9.22079 -11.49259,-1.33634 -8.55263,-6.28083 -21.1143,-6.28083 -12.56166,0 -15.36799,0.93544 -18.17432,2.00452 -2.806335,1.06908 -3.741783,2.80633 -4.677225,2.6727 -0.935442,-0.13364 -1.870887,-1.33635 -2.806329,-0.93545 -0.935445,0.40091 -0.935445,2.40543 -2.672697,2.6727 -1.737251,0.26727 -3.340867,0.80181 -3.340867,0.80181 l -0.267272,1.33635 -2.271789,1.20271 c 0,0 -1.737251,2.80633 -2.405427,2.80633 -0.668174,0 -2.939963,2.00452 -2.939963,2.00452 l 0.668173,2.27179 -1.469982,2.53906 0.534537,2.13816 -0.133633,0.93544 2.539061,3.74177 c 0,0 7.349911,4.54359 8.686257,4.54359 1.33635,0 8.151726,1.06907 9.621706,1.06907 1.46999,0 5.07812,1.87089 8.95353,0.66818 3.87541,-1.20272 5.7463,-1.60362 7.88445,-2.40543 2.13816,-0.80181 6.68174,-4.27631 8.55263,-5.47902 1.87089,-1.20272 1.33635,-6.54811 5.87993,-7.75082 4.54358,-1.20271 1.60362,0 3.87541,0.4009 2.27179,0.40091 -1.20272,7.34992 7.88445,8.01809 9.08716,0.66817 21.64883,-0.80181 21.64883,-0.80181 0,0 -7.21628,-1.73725 -8.01809,-1.73725 -0.80181,0 -6.5481,2.13816 -6.68174,0.53454 -0.13363,-1.60362 -4.27631,-7.21628 -1.46998,-9.35443 2.80633,-2.13816 8.8199,-10.02261 12.56167,-10.42352 3.74177,-0.4009 8.01809,-0.26726 8.01809,-0.8018 0,-0.53454 6.68173,-6.54811 6.68173,-6.54811 z"
       id="path51"
       inkscape:connector-curvature="0" />
    <circle
       style="opacity:1;fill:#ff6600;fill-opacity:1;stroke:none;stroke-width:6.14246273;stroke-linecap:round;stroke-linejoin:round;stroke-miterlimit:4;stroke-dasharray:none;stroke-opacity:1"
       id="path65-3-6"
       cx="89.36824"
       cy="130.32405"
       r="5.0276852" />
    <circle
       style="opacity:1;fill:#fcbc2c;fill-opacity:1;stroke:none;stroke-width:5.02040815;stroke-linecap:round;stroke-linejoin:round;stroke-miterlimit:4;stroke-dasharray:none;stroke-opacity:1"
       id="path65-3"
       cx="89.36824"
       cy="130.32404"
       r="4.1092691" />
    <path
       style="fill:#fcbc2c;fill-opacity:1;stroke:none;stroke-width:0.26458332px;stroke-linecap:butt;stroke-linejoin:miter;stroke-opacity:1"
       d="m 106.77417,113.51946 c 1.73726,-1.06908 0.40091,-2.27179 0.40091,-2.27179 0,0 -3.74177,-0.80181 -0.93544,-1.87089 2.80633,-1.06908 2.53906,-1.60362 4.27631,-3.34087 1.73725,-1.73725 1.46998,-4.67721 4.00904,-6.147197 2.53906,-1.469982 5.07812,-2.806329 5.07812,-2.806329 0,0 -4.00904,3.474506 0.66818,7.216276 4.67721,3.74177 14.29892,7.34991 15.50163,8.95353 1.20271,1.60362 -1.73725,4.00904 -1.73725,4.00904 0,0 -15.63527,-4.27631 -17.10525,-4.00904 -1.46999,0.26727 -10.95805,0.13363 -10.15625,0.26727 z"
       id="path53"
       inkscape:connector-curvature="0" />
    <path
       style="fill:url(#linearGradient135);fill-opacity:1;stroke:none;stroke-width:0.26458332px;stroke-linecap:butt;stroke-linejoin:miter;stroke-opacity:1"
       d="m 126.55212,135.16829 c 2.80633,1.73725 3.60814,4.67722 4.54358,4.40995 0.93545,-0.26727 8.41899,1.06908 10.42351,1.60362 2.00453,0.53453 5.87993,8.41898 5.87993,8.41898 l 8.01809,6.68174 c 0,0 0.53454,-10.42351 0,-11.09168 -0.53454,-0.66817 -9.62171,-7.61718 -9.62171,-7.61718 0,0 -14.56618,-8.41899 -15.10072,-8.55263 -0.53454,-0.13363 -4.14268,6.1472 -4.14268,6.1472 z"
       id="path55"
       inkscape:connector-curvature="0" />
    <path
       style="fill:url(#linearGradient145);fill-opacity:1;stroke:none;stroke-width:0.26458332px;stroke-linecap:butt;stroke-linejoin:miter;stroke-opacity:1"
       d="m 116.79678,142.65184 c 2.80633,0.4009 4.40995,7.34991 6.68174,8.28535 2.27179,0.93545 9.2208,4.81085 9.75534,4.67722 0.53454,-0.13364 -4.81085,-12.16076 -4.81085,-12.16076 l -8.55263,-3.0736 z"
       id="path57"
       inkscape:connector-curvature="0" />
    <path
       style="fill:none;stroke:none;stroke-width:0.26458332px;stroke-linecap:butt;stroke-linejoin:miter;stroke-opacity:1"
       d="m 100.09244,119.66666 c 4.67721,2.67269 5.74629,9.2208 6.28083,11.09168 0.53454,1.87089 -1.87088,9.75534 -3.87541,10.15625 -2.00452,0.4009 -8.552622,-9.08717 -6.681735,-12.2944 1.870887,-3.20724 4.276315,-8.95353 4.276315,-8.95353 z"
       id="path61"
       inkscape:connector-curvature="0" />
    <path
       style="fill:url(#linearGradient119);fill-opacity:1;stroke:none;stroke-width:0.26458332px;stroke-linecap:butt;stroke-linejoin:miter;stroke-opacity:1"
       d="m 120.00402,121.27027 c 5.74629,3.47451 7.75081,10.95805 6.5481,13.89802 -1.20271,2.93996 -3.47451,8.01809 -9.75534,7.48355 -6.28083,-0.53454 -10.82442,0.26727 -10.15624,-5.34539 0.66817,-5.61266 -1.06908,-13.76438 0.26727,-13.89802 1.33635,-0.13363 13.09621,-2.13816 13.09621,-2.13816 z"
       id="path63"
       inkscape:connector-curvature="0" />
    <circle
       style="opacity:1;fill:#333333;fill-opacity:1;stroke:none;stroke-width:2.40816331;stroke-linecap:round;stroke-linejoin:round;stroke-miterlimit:4;stroke-dasharray:none;stroke-opacity:1"
       id="path65"
       cx="89.36824"
       cy="130.32402"
       r="1.9711127" />
    <path
       style="fill:#fda922;fill-opacity:1;stroke:none;stroke-width:0.26458332px;stroke-linecap:butt;stroke-linejoin:miter;stroke-opacity:1"
       d="m 106.73503,137.30645 c -1.06908,2.00452 -2.27179,2.13815 0.26727,3.87541 2.53906,1.73725 12.42803,6.949 12.2944,6.14719 -0.13364,-0.8018 -9.2208,-5.21175 -9.62171,-6.41446 -0.4009,-1.20272 -2.93996,-3.60814 -2.93996,-3.60814 z"
       id="path59"
       inkscape:connector-curvature="0" />
    <path
       style="fill:url(#linearGradient956);fill-opacity:1;stroke:none;stroke-width:0.26458332px;stroke-linecap:butt;stroke-linejoin:miter;stroke-opacity:1"
       d="m 81.116299,134.40563 c 0.350792,0.011 2.589177,1.83174 2.589177,1.83174 0,0 -0.400906,0.73499 -0.467724,0.66817 -0.06682,-0.0668 -2.204972,-1.95441 -2.204972,-1.95441 z"
       id="path954"
       inkscape:connector-curvature="0"
       sodipodi:nodetypes="ccccc" />
  </g>
</svg>
