<svg width="18" height="18" viewBox="0 0 18 18" fill="none" xmlns="http://www.w3.org/2000/svg">
<path d="M9.87457 2.73132L11.4452 5.88759C11.5609 6.11627 11.7817 6.27507 12.0365 6.31036L15.5643 6.82417C15.7704 6.85311 15.9574 6.9618 16.0837 7.12766C16.2085 7.2914 16.2622 7.4989 16.2318 7.70287C16.2071 7.87226 16.1274 8.02894 16.0053 8.14893L13.449 10.6269C13.262 10.7999 13.1774 11.0561 13.2225 11.3066L13.8519 14.7904C13.9189 15.211 13.6402 15.6077 13.2225 15.6874C13.0504 15.7149 12.874 15.686 12.7188 15.607L9.57187 13.9674C9.33833 13.8496 9.06245 13.8496 8.8289 13.9674L5.68202 15.607C5.29536 15.8123 4.81628 15.6726 4.60108 15.2915C4.52135 15.1397 4.49312 14.9668 4.51923 14.7981L5.1486 11.3137C5.19376 11.0638 5.10839 10.8062 4.92211 10.6333L2.36581 8.15669C2.0617 7.86309 2.05253 7.37962 2.34534 7.07543C2.35169 7.06908 2.35875 7.06202 2.36581 7.05496C2.48716 6.93145 2.64663 6.85311 2.81879 6.83264L6.34668 6.31812C6.60068 6.28213 6.82153 6.12474 6.93795 5.89465L8.45212 2.73132C8.58689 2.4603 8.86629 2.29162 9.16969 2.29868H9.26424C9.52742 2.33044 9.75673 2.49347 9.87457 2.73132Z" fill="#1E222B"/>
<path d="M9.18022 13.8795C9.04358 13.8838 8.91046 13.9205 8.79072 13.9861L5.65923 15.6219C5.27607 15.8048 4.81755 15.6629 4.60272 15.2965C4.52313 15.1468 4.49426 14.9752 4.52102 14.8072L5.14647 11.3301C5.18873 11.0774 5.10421 10.8204 4.92038 10.6425L2.36293 8.16653C2.05936 7.86931 2.05372 7.38146 2.35095 7.07717C2.35518 7.07293 2.3587 7.0694 2.36293 7.06587C2.48407 6.94585 2.64044 6.86678 2.80877 6.84207L6.33962 6.32245C6.5953 6.28997 6.81716 6.13042 6.92986 5.89885L8.46461 2.6957C8.61041 2.4373 8.89003 2.28339 9.18585 2.29963C9.18022 2.50931 9.18022 13.7369 9.18022 13.8795Z" fill="#F9B023"/>
</svg>
