<svg width="18" height="18" viewBox="0 0 18 18" fill="none" xmlns="http://www.w3.org/2000/svg">
<path d="M13.5704 10.6367C13.3877 10.8138 13.3038 11.0699 13.3454 11.321L13.9725 14.7917C14.0254 15.0858 13.9013 15.3835 13.6551 15.5535C13.4138 15.7299 13.0928 15.7511 12.8297 15.61L9.70538 13.9804C9.59675 13.9226 9.47612 13.8916 9.35267 13.888H9.1615C9.09519 13.8979 9.03029 13.9191 8.97104 13.9515L5.846 15.5888C5.69151 15.6664 5.51656 15.6939 5.34514 15.6664C4.92753 15.5874 4.64889 15.1895 4.71731 14.7698L5.34514 11.2991C5.38676 11.0459 5.30282 10.7884 5.12011 10.6085L2.57282 8.13951C2.35978 7.93282 2.28571 7.62244 2.38306 7.34238C2.47759 7.06303 2.71884 6.85917 3.01018 6.81331L6.51615 6.3047C6.7828 6.27719 7.017 6.11494 7.13693 5.8751L8.68181 2.70773C8.71849 2.63719 8.76576 2.57229 8.8229 2.51727L8.88638 2.46789C8.91954 2.4312 8.95763 2.40087 8.99996 2.37618L9.07685 2.34796L9.19677 2.29858H9.49376C9.759 2.3261 9.99249 2.48482 10.1145 2.72184L11.6799 5.8751C11.7927 6.10577 12.0121 6.2659 12.2654 6.3047L15.7713 6.81331C16.0676 6.85564 16.3152 7.06021 16.4133 7.34238C16.5057 7.62526 16.426 7.93565 16.2087 8.13951L13.5704 10.6367Z" fill="#F9B023"/>
</svg>
