<svg width="24" height="24" viewBox="0 0 24 24" fill="none" xmlns="http://www.w3.org/2000/svg">
<circle cx="12" cy="12" r="11" fill="#F9B023" stroke="#FAFBFD" stroke-width="2"/>
<path d="M11.2951 17.189C11.9251 17.189 12.4945 17.0467 13.0031 16.762C13.5118 16.4773 13.9155 16.0853 14.2141 15.586C14.5128 15.082 14.6621 14.5103 14.6621 13.871C14.6621 13.325 14.5548 12.8257 14.3401 12.373C14.1301 11.9203 13.8268 11.5493 13.4301 11.26C13.0381 10.966 12.5691 10.7817 12.0231 10.707L14.5151 8.313V6.92H8.45314V8.313H12.7231L9.64314 11.036L10.3291 12.191C10.6418 12.023 10.9591 11.939 11.2811 11.939C11.8411 11.939 12.2938 12.121 12.6391 12.485C12.9891 12.849 13.1641 13.311 13.1641 13.871C13.1641 14.4263 12.9915 14.886 12.6461 15.25C12.3008 15.6093 11.8505 15.7937 11.2951 15.803C10.8845 15.8077 10.5111 15.6957 10.1751 15.467C9.83914 15.2383 9.60347 14.9047 9.46814 14.466L8.05414 14.858C8.19881 15.334 8.42981 15.747 8.74714 16.097C9.06914 16.447 9.44947 16.7177 9.88814 16.909C10.3268 17.0957 10.7958 17.189 11.2951 17.189Z" fill="white"/>
</svg>
